<svg width="200" height="200" viewBox="0 0 200 200" fill="none" xmlns="http://www.w3.org/2000/svg">
  <defs>
    <!-- Gradient definitions for premium feel -->
    <linearGradient id="primaryGradient" x1="20" y1="20" x2="180" y2="180" gradientUnits="userSpaceOnUse">
      <stop offset="0%" stop-color="#0A0A0A"/>
      <stop offset="100%" stop-color="#1A1A1B"/>
    </linearGradient>
    
    <linearGradient id="accentGradient" x1="40" y1="40" x2="160" y2="160" gradientUnits="userSpaceOnUse">
      <stop offset="0%" stop-color="#6366F1"/>
      <stop offset="100%" stop-color="#8B5CF6"/>
      <stop offset="100%" stop-color="#A855F7"/>
    </linearGradient>
    
    <linearGradient id="highlightGradient" x1="70" y1="70" x2="130" y2="130" gradientUnits="userSpaceOnUse">
      <stop offset="0%" stop-color="#FFFFFF" stop-opacity="0.1"/>
      <stop offset="100%" stop-color="#FFFFFF" stop-opacity="0"/>
    </linearGradient>
    
    <!-- Inner glow for depth -->
    <filter id="glow" x="-50%" y="-50%" width="200%" height="200%">
      <feGaussianBlur stdDeviation="2" result="blur"/>
      <feComposite in="SourceGraphic" in2="blur" operator="over"/>
    </filter>
  </defs>
  
  <!-- Matrix-style background pattern -->
  <g opacity="0.1">
    <pattern id="matrixGrid" x="0" y="0" width="20" height="20" patternUnits="userSpaceOnUse">
      <circle cx="2" cy="2" r="1" fill="#6366F1"/>
    </pattern>
    <rect width="200" height="200" fill="url(#matrixGrid)"/>
  </g>
  
  <!-- Main hexagonal frame (represents stability and data structure) -->
  <path d="M100 20 L160 50 L160 110 L100 140 L40 110 L40 50 Z" 
        stroke="url(#accentGradient)" 
        stroke-width="3" 
        fill="url(#primaryGradient)"/>
  
  <!-- Neural network connections -->
  <g stroke="#6366F1" stroke-width="1.5" stroke-opacity="0.6">
    <line x1="70" y1="70" x2="130" y2="50"/>
    <line x1="70" y1="70" x2="50" y2="90"/>
    <line x1="130" y1="70" x2="110" y2="90"/>
    <line x1="100" y1="100" x2="90" y2="120"/>
  </g>
  
  <!-- Data processing nodes -->
  <g>
    <circle cx="70" cy="70" r="8" fill="url(#accentGradient)" opacity="0.9"/>
    <circle cx="130" cy="70" r="8" fill="url(#accentGradient)" opacity="0.9"/>
    <circle cx="100" cy="100" r="10" fill="url(#accentGradient)" filter="url(#glow)"/>
    <circle cx="50" cy="90" r="6" fill="url(#accentGradient)" opacity="0.8"/>
    <circle cx="110" cy="90" r="6" fill="url(#accentGradient)" opacity="0.8"/>
    <circle cx="90" cy="120" r="6" fill="url(#accentGradient)" opacity="0.8"/>
  </g>
  
  <!-- Central AI intelligence symbol -->
  <g transform="translate(100, 100)">
    <!-- Brain-like structure -->
    <circle cx="0" cy="0" r="15" fill="none" stroke="url(#accentGradient)" stroke-width="2"/>
    <circle cx="0" cy="0" r="8" fill="url(#highlightGradient)"/>
    
    <!-- Cognitive waves/pulses -->
    <g stroke="#FFFFFF" stroke-width="1" stroke-opacity="0.6">
      <path d="M15 0 C20 -3, 25 3, 30 0" fill="none"/>
      <path d="M15 4 C19 1, 23 7, 27 4" fill="none"/>
      <path d="M15 -4 C19 -7, 23 -1, 27 -4" fill="none"/>
    </g>
  </g>
  
  <!-- Hexagonal corner accents -->
  <g stroke="#6366F1" stroke-width="1.5" stroke-linecap="round">
    <path d="M45 55 L55 60"/>
    <path d="M145 55 L135 60"/>
    <path d="M145 105 L135 100"/>
    <path d="M45 105 L55 100"/>
  </g>
  
  <!-- Subtle texture overlay -->
  <rect width="200" height="200" fill="url(#highlightGradient)" opacity="0.8"/>
  
  <!-- Floating particles for modern feel -->
  <g opacity="0.3">
    <circle cx="25" cy="30" r="1.5" fill="#8B5CF6">
      <animate attributeName="cy" values="30;40;30" dur="4s" repeatCount="indefinite"/>
    </circle>
    <circle cx="175" cy="170" r="1" fill="#6366F1">
      <animate attributeName="cx" values="175;165;175" dur="3s" repeatCount="indefinite"/>
    </circle>
    <circle cx="120" cy="35" r="1.2" fill="#A855F7">
      <animate attributeName="opacity" values="0.3;1;0.3" dur="2s" repeatCount="indefinite"/>
    </circle>
  </g>
</svg>