<svg width="40" height="40" viewBox="0 0 40 40" xmlns="http://www.w3.org/2000/svg">
  <g fill="none" fill-rule="evenodd">
    <rect width="40" height="40" rx="8" fill="#FFFBEB"/>
    <path d="M20 10c5.523 0 10 4.477 10 10s-4.477 10-10 10-10-4.477-10-10 4.477-10 10-10zm0 5c-2.761 0-5 2.239-5 5s2.239 5 5 5 5-2.239 5-5-2.239-5-5-5z" fill="#F59E0B"/>
    <circle cx="20" cy="20" r="2" fill="#FCD34D"/>
    <path d="M17 20h6M20 17v6" stroke="#FDE68A" stroke-width="1.5" stroke-linecap="round"/>
    <circle cx="20" cy="7" r="1" fill="#FDE68A"/>
    <circle cx="33" cy="20" r="1" fill="#FDE68A"/>
    <circle cx="20" cy="33" r="1" fill="#FDE68A"/>
    <circle cx="7" cy="20" r="1" fill="#FDE68A"/>
  </g>
</svg>