<svg width="40" height="40" viewBox="0 0 40 40" xmlns="http://www.w3.org/2000/svg">
  <g fill="none" fill-rule="evenodd">
    <rect width="40" height="40" rx="8" fill="#F0F9FF"/>
    <path d="M20 12c4.418 0 8 3.582 8 8s-3.582 8-8 8-8-3.582-8-8 3.582-8 8-8zm0 2c3.314 0 6 2.686 6 6s-2.686 6-6 6-6-2.686-6-6 2.686-6 6-6z" fill="#0EA5E9"/>
    <circle cx="20" cy="20" r="2" fill="#7DD3FC"/>
    <path d="M16 16l8 8M16 24l8-8" stroke="#BAE6FD" stroke-width="1" stroke-linecap="round"/>
    <circle cx="20" cy="10" r="1" fill="#BAE6FD"/>
    <circle cx="30" cy="20" r="1" fill="#BAE6FD"/>
    <circle cx="20" cy="30" r="1" fill="#BAE6FD"/>
    <circle cx="10" cy="20" r="1" fill="#BAE6FD"/>
  </g>
</svg>