<svg width="40" height="40" viewBox="0 0 40 40" xmlns="http://www.w3.org/2000/svg">
  <g fill="none" fill-rule="evenodd">
    <rect width="40" height="40" rx="8" fill="#F0FDF4"/>
    <path d="M20 10c5.523 0 10 4.477 10 10s-4.477 10-10 10-10-4.477-10-10 4.477-10 10-10zm0 5c-2.761 0-5 2.239-5 5s2.239 5 5 5 5-2.239 5-5-2.239-5-5-5z" fill="#22C55E"/>
    <circle cx="20" cy="20" r="2" fill="#86EFAC"/>
    <path d="M17 20h6M20 17v6" stroke="#BBF7D0" stroke-width="1.5" stroke-linecap="round"/>
    <circle cx="20" cy="6" r="1" fill="#BBF7D0"/>
    <circle cx="34" cy="20" r="1" fill="#BBF7D0"/>
    <circle cx="20" cy="34" r="1" fill="#BBF7D0"/>
    <circle cx="6" cy="20" r="1" fill="#BBF7D0"/>
  </g>
</svg>