<svg width="40" height="40" viewBox="0 0 40 40" xmlns="http://www.w3.org/2000/svg">
  <g fill="none" fill-rule="evenodd">
    <rect width="40" height="40" rx="8" fill="#FBF5FF"/>
    <path d="M20 10c5.523 0 10 4.477 10 10s-4.477 10-10 10-10-4.477-10-10 4.477-10 10-10zm0 6c-2.209 0-4 1.791-4 4s1.791 4 4 4 4-1.791 4-4-1.791-4-4-4z" fill="#7C3AED"/>
    <circle cx="20" cy="20" r="2" fill="#A78BFA"/>
    <path d="M17 20h6M20 17v6" stroke="#E9D5FF" stroke-width="1.5" stroke-linecap="round"/>
    <circle cx="20" cy="5" r="1" fill="#E9D5FF"/>
    <circle cx="35" cy="20" r="1" fill="#E9D5FF"/>
    <circle cx="20" cy="35" r="1" fill="#E9D5FF"/>
    <circle cx="5" cy="20" r="1" fill="#E9D5FF"/>
  </g>
</svg>