<svg width="40" height="40" viewBox="0 0 40 40" xmlns="http://www.w3.org/2000/svg">
  <g fill="none" fill-rule="evenodd">
    <rect width="40" height="40" rx="8" fill="#EFF6FF"/>
    <path d="M20 12c4.418 0 8 3.582 8 8s-3.582 8-8 8-8-3.582-8-8 3.582-8 8-8z" fill="#3B82F6"/>
    <path d="M20 16c2.209 0 4 1.791 4 4s-1.791 4-4 4-4-1.791-4-4 1.791-4 4-4zm0 2c1.105 0 2 .895 2 2s-.895 2-2 2-2-.895-2-2 .895-2 2-2z" fill="#FFF" fill-opacity=".8"/>
    <circle cx="20" cy="20" r="1" fill="#3B82F6"/>
    <path d="M15 15l10 10M15 25l10-10" stroke="#93C5FD" stroke-width="1" stroke-linecap="round"/>
  </g>
</svg>