<svg width="40" height="40" viewBox="0 0 40 40" xmlns="http://www.w3.org/2000/svg">
  <g fill="none" fill-rule="evenodd">
    <rect width="40" height="40" rx="8" fill="#F0FDFA"/>
    <path d="M20 12c4.418 0 8 3.582 8 8s-3.582 8-8 8-8-3.582-8-8 3.582-8 8-8zm0 4c-2.209 0-4 1.791-4 4s1.791 4 4 4 4-1.791 4-4-1.791-4-4-4z" fill="#0D9488"/>
    <circle cx="20" cy="20" r="2" fill="#2DD4BF"/>
    <path d="M18 18l4 4M22 18l-4 4" stroke="#99F6E4" stroke-width="1" stroke-linecap="round"/>
    <circle cx="20" cy="6" r="1" fill="#99F6E4"/>
    <circle cx="34" cy="20" r="1" fill="#99F6E4"/>
    <circle cx="20" cy="34" r="1" fill="#99F6E4"/>
    <circle cx="6" cy="20" r="1" fill="#99F6E4"/>
  </g>
</svg>