<svg width="40" height="40" viewBox="0 0 40 40" xmlns="http://www.w3.org/2000/svg">
  <g fill="none" fill-rule="evenodd">
    <rect width="40" height="40" rx="8" fill="#ECFDF5"/>
    <path d="M20 10c5.523 0 10 4.477 10 10s-4.477 10-10 10-10-4.477-10-10 4.477-10 10-10zm0 4c-3.314 0-6 2.686-6 6s2.686 6 6 6 6-2.686 6-6-2.686-6-6-6z" fill="#10B981"/>
    <circle cx="20" cy="20" r="3" fill="#34D399"/>
    <path d="M16 20h8M20 16v8" stroke="#6EE7B7" stroke-width="1.5" stroke-linecap="round"/>
    <path d="M15 15l10 10M15 25l10-10" stroke="#A7F3D0" stroke-width="1" stroke-linecap="round"/>
  </g>
</svg>