<svg width="40" height="40" viewBox="0 0 40 40" xmlns="http://www.w3.org/2000/svg">
  <g fill="none" fill-rule="evenodd">
    <rect width="40" height="40" rx="8" fill="#F5F3FF"/>
    <path d="M20 12c4.418 0 8 3.582 8 8s-3.582 8-8 8-8-3.582-8-8 3.582-8 8-8zm0 3c-2.761 0-5 2.239-5 5s2.239 5 5 5 5-2.239 5-5-2.239-5-5-5z" fill="#8B5CF6"/>
    <circle cx="20" cy="20" r="2" fill="#C4B5FD"/>
    <path d="M18 18l4 4M18 22l4-4" stroke="#DDD6FE" stroke-width="1" stroke-linecap="round"/>
    <circle cx="20" cy="8" r="1" fill="#DDD6FE"/>
    <circle cx="32" cy="20" r="1" fill="#DDD6FE"/>
    <circle cx="20" cy="32" r="1" fill="#DDD6FE"/>
    <circle cx="8" cy="20" r="1" fill="#DDD6FE"/>
  </g>
</svg>