<svg width="40" height="40" viewBox="0 0 40 40" xmlns="http://www.w3.org/2000/svg">
  <g fill="none" fill-rule="evenodd">
    <!-- Brain/network visualization -->
    <path d="M20 8c6.627 0 12 5.373 12 12s-5.373 12-12 12-12-5.373-12-12S13.373 8 20 8zm0 3c-4.97 0-9 4.03-9 9s4.03 9 9 9 9-4.03 9-9-4.03-9-9-9z" fill="#4F46E5"/>
    <circle cx="20" cy="20" r="4" fill="#8B5CF6"/>
    <circle cx="20" cy="8" r="2" fill="#A5B4FC"/>
    <circle cx="29.899" cy="10.101" r="2" fill="#A5B4FC"/>
    <circle cx="32" cy="20" r="2" fill="#A5B4FC"/>
    <circle cx="29.899" cy="29.899" r="2" fill="#A5B4FC"/>
    <circle cx="20" cy="32" r="2" fill="#A5B4FC"/>
    <circle cx="10.101" cy="29.899" r="2" fill="#A5B4FC"/>
    <circle cx="8" cy="20" r="2" fill="#A5B4FC"/>
    <circle cx="10.101" cy="10.101" r="2" fill="#A5B4FC"/>
    <!-- Connecting lines -->
    <path d="M20 12v-2M26.556 11.444l2.829-2.828M29 17h2M26.556 28.556l2.829 2.828M20 28v2M13.444 28.556l-2.829 2.828M11 17h-2M13.444 11.444l-2.829-2.828" stroke="#C7D2FE" stroke-width="1" stroke-linecap="round"/>
  </g>
</svg>