<svg viewBox="0 0 100 100" xmlns="http://www.w3.org/2000/svg">
  <defs>
    <linearGradient id="nc1" x1="0%" y1="0%" x2="100%" y2="100%">
      <stop offset="0%" style="stop-color:#6366F1;stop-opacity:1" />
      <stop offset="100%" style="stop-color:#10B981;stop-opacity:1" />
    </linearGradient>
    <filter id="neon">
      <feGaussianBlur stdDeviation="1.5" result="coloredBlur"/>
      <feMerge>
        <feMergeNode in="coloredBlur"/>
        <feMergeNode in="SourceGraphic"/>
      </feMerge>
    </filter>
  </defs>
  
  <!-- Central neural network structure -->
  <circle cx="50" cy="50" r="20" fill="none" stroke="url(#nc1)" stroke-width="3" opacity="0.9"/>
  <circle cx="38" cy="38" r="4" fill="#6366F1" opacity="0.8"/>
  <circle cx="62" cy="38" r="4" fill="#6366F1" opacity="0.8"/>
  <circle cx="38" cy="62" r="4" fill="#6366F1" opacity="0.8"/>
  <circle cx="62" cy="62" r="4" fill="#6366F1" opacity="0.8"/>
  <circle cx="50" cy="30" r="3" fill="#10B981" opacity="0.9"/>
  <circle cx="50" cy="70" r="3" fill="#10B981" opacity="0.9"/>
  
  <!-- Connecting pathways -->
  <line x1="38" y1="38" x2="50" y2="50" stroke="#6366F1" stroke-width="1.5" opacity="0.6"/>
  <line x1="62" y1="38" x2="50" y2="50" stroke="#6366F1" stroke-width="1.5" opacity="0.6"/>
  <line x1="38" y1="62" x2="50" y2="50" stroke="#6366F1" stroke-width="1.5" opacity="0.6"/>
  <line x1="62" y1="62" x2="50" y2="50" stroke="#6366F1" stroke-width="1.5" opacity="0.6"/>
  <line x1="50" y1="30" x2="50" y2="50" stroke="#10B981" stroke-width="2" opacity="0.7"/>
  <line x1="50" y1="50" x2="50" y2="70" stroke="#10B981" stroke-width="2" opacity="0.7"/>
  
  <!-- Orbital data rings -->
  <ellipse cx="50" cy="50" rx="28" ry="15" fill="none" stroke="#10B981" stroke-width="1" opacity="0.3" transform="rotate(45 50 50)"/>
  <ellipse cx="50" cy="50" rx="15" ry="28" fill="none" stroke="#6366F1" stroke-width="1" opacity="0.3" transform="rotate(45 50 50)"/>
</svg>