<svg viewBox="0 0 100 100" xmlns="http://www.w3.org/2000/svg">
  <defs>
    <linearGradient id="pc1" x1="0%" y1="0%" x2="100%" y2="100%">
      <stop offset="0%" style="stop-color:#8B5CF6;stop-opacity:0.8" />
      <stop offset="50%" style="stop-color:#06B6D4;stop-opacity:0.9" />
      <stop offset="100%" style="stop-color:#10B981;stop-opacity:0.8" />
    </linearGradient>
    <filter id="glow">
      <feGaussianBlur stdDeviation="2" result="coloredBlur"/>
      <feMerge>
        <feMergeNode in="coloredBlur"/>
        <feMergeNode in="SourceGraphic"/>
      </feMerge>
    </filter>
  </defs>
  
  <!-- Crystal structure -->
  <path d="M50 20 L75 40 L75 60 L50 80 L25 60 L25 40 Z" fill="none" stroke="url(#pc1)" stroke-width="2.5" filter="url(#glow)"/>
  
  <!-- Internal data lattice -->
  <path d="M50 35 L65 45 L65 55 L50 65 L35 55 L35 45 Z" fill="none" stroke="#8B5CF6" stroke-width="1.5" opacity="0.7"/>
  <path d="M35 45 L50 35 L65 45" stroke="#06B6D4" stroke-width="1" opacity="0.6"/>
  <path d="M35 55 L50 65 L65 55" stroke="#10B981" stroke-width="1" opacity="0.6"/>
  
  <!-- Predictive vectors -->
  <line x1="20" y1="30" x2="50" y2="50" stroke="#8B5CF6" stroke-width="1.5" opacity="0.5"/>
  <line x1="30" y1="15" x2="50" y2="50" stroke="#06B6D4" stroke-width="1.5" opacity="0.5"/>
  <line x1="80" y1="70" x2="50" y2="50" stroke="#10B981" stroke-width="1.5" opacity="0.5"/>
  
  <!-- Data points on vertices -->
  <circle cx="50" cy="20" r="2" fill="#8B5CF6" opacity="0.9"/>
  <circle cx="75" cy="40" r="2" fill="#06B6D4" opacity="0.9"/>
  <circle cx="75" cy="60" r="2" fill="#10B981" opacity="0.9"/>
  <circle cx="50" cy="80" r="2" fill="#8B5CF6" opacity="0.9"/>
  <circle cx="25" cy="60" r="2" fill="#06B6D4" opacity="0.9"/>
  <circle cx="25" cy="40" r="2" fill="#10B981" opacity="0.9"/>
</svg>