<svg viewBox="0 0 100 100" xmlns="http://www.w3.org/2000/svg">
  <defs>
    <linearGradient id="mt1" x1="0%" y1="0%" x2="100%" y2="100%">
      <stop offset="0%" style="stop-color:#4338CA;stop-opacity:1" />
      <stop offset="50%" style="stop-color:#7C3AED;stop-opacity:1" />
      <stop offset="100%" style="stop-color:#A855F7;stop-opacity:1" />
    </linearGradient>
  </defs>
  
  <!-- Tesseract frame -->
  <rect x="25" y="25" width="50" height="50" fill="none" stroke="url(#mt1)" stroke-width="2.5"/>
  <rect x="20" y="20" width="60" height="60" fill="none" stroke="#7C3AED" stroke-width="2"/>
  
  <!-- Connecting vertices between dimensions -->
  <line x1="25" y1="25" x2="20" y2="20" stroke="#4338CA" stroke-width="1.5" opacity="0.8"/>
  <line x1="75" y1="25" x2="80" y2="20" stroke="#4338CA" stroke-width="1.5" opacity="0.8"/>
  <line x1="25" y1="75" x2="20" y2="80" stroke="#4338CA" stroke-width="1.5" opacity="0.8"/>
  <line x1="75" y1="75" x2="80" y2="80" stroke="#4338CA" stroke-width="1.5" opacity="0.8"/>
  
  <!-- Neural nexus points -->
  <circle cx="37.5" cy="37.5" r="3" fill="#7C3AED" opacity="0.9"/>
  <circle cx="62.5" cy="37.5" r="3" fill="#7C3AED" opacity="0.9"/>
  <circle cx="37.5" cy="62.5" r="3" fill="#7C3AED" opacity="0.9"/>
  <circle cx="62.5" cy="62.5" r="3" fill="#7C3AED" opacity="0.9"/>
  
  <!-- Cross-dimensional connections -->
  <line x1="37.5" y1="37.5" x2="62.5" y2="62.5" stroke="#A855F7" stroke-width="1.5" opacity="0.7"/>
  <line x1="62.5" y1="37.5" x2="37.5" y2="62.5" stroke="#A855F7" stroke-width="1.5" opacity="0.7"/>
  
  <!-- Mind flow indicators -->
  <circle cx="50" cy="50" r="5" fill="url(#mt1)" opacity="0.8"/>
  <path d="M42 42 Q50 35 58 42" fill="none" stroke="#4338CA" stroke-width="1" opacity="0.4"/>
  <path d="M42 58 Q50 65 58 58" fill="none" stroke="#A855F7" stroke-width="1" opacity="0.4"/>
</svg>