<svg viewBox="0 0 100 100" xmlns="http://www.w3.org/2000/svg">
  <defs>
    <conicalGradient id="fc1" cx="50" cy="50" r="30">
      <stop offset="0%" style="stop-color:#F59E0B;stop-opacity:1" />
      <stop offset="25%" style="stop-color:#F97316;stop-opacity:1" />
      <stop offset="50%" style="stop-color:#EF4444;stop-opacity:1" />
      <stop offset="75%" style="stop-color:#DC2626;stop-opacity:1" />
      <stop offset="100%" style="stop-color:#991B1B;stop-opacity:1" />
    </conicalGradient>
    <linearGradient id="compass1" x1="0%" y1="0%" x2="100%" y2="100%">
      <stop offset="0%" style="stop-color:#F59E0B;stop-opacity:1" />
      <stop offset="100%" style="stop-color:#EF4444;stop-opacity:1" />
    </linearGradient>
  </defs>
  
  <!-- Compass outer ring -->
  <circle cx="50" cy="50" r="30" fill="none" stroke="#1E293B" stroke-width="2.5"/>
  <circle cx="50" cy="50" r="25" fill="none" stroke="#475569" stroke-width="0.5"/>
  
  <!-- Forecast directions -->
  <path d="M50 20 L45 30 L55 30 Z" fill="url(#compass1)" stroke="#1E293B" stroke-width="0.5"/>
  <path d="M50 80 L45 70 L55 70 Z" fill="#0EA5E9" stroke="#1E293B" stroke-width="0.5"/>
  <path d="M20 50 L30 45 L30 55 Z" fill="#059669" stroke="#1E293B" stroke-width="0.5"/>
  <path d="M80 50 L70 45 L70 55 Z" fill="#DC2626" stroke="#1E293B" stroke-width="0.5"/>
  
  <!-- Prediction needle -->
  <line x1="50" y1="50" x2="35" y2="35" stroke="#F59E0B" stroke-width="4" stroke-linecap="round"/>
  <line x1="50" y1="50" x2="65" y2="65" stroke="#0EA5E9" stroke-width="2" stroke-linecap="round"/>
  <circle cx="50" cy="50" r="3" fill="#1E293B"/>
  
  <!-- Forecast zones -->
  <ellipse cx="50" cy="50" rx="15" ry="8" fill="none" stroke="#F59E0B" stroke-width="0.5" opacity="0.5"/>
  <ellipse cx="50" cy="50" rx="8" ry="15" fill="none" stroke="#0EA5E9" stroke-width="0.5" opacity="0.5"/>
  
  <!-- Trend indicators -->
  <path d="M30 25 Q35 20 40 25" stroke="#EF4444" stroke-width="1.5" fill="none" opacity="0.7"/>
  <path d="M70 65 Q65 70 60 65" stroke="#059669" stroke-width="1.5" fill="none" opacity="0.7"/>
</svg>