<svg viewBox="0 0 100 100" xmlns="http://www.w3.org/2000/svg">
  <defs>
    <linearGradient id="cg1" x1="0%" y1="0%" x2="100%" y2="100%">
      <stop offset="0%" style="stop-color:#4338CA;stop-opacity:1" />
      <stop offset="50%" style="stop-color:#6366F1;stop-opacity:1" />
      <stop offset="100%" style="stop-color:#8B5CF6;stop-opacity:1" />
    </linearGradient>
    <pattern id="gridPattern" width="5" height="5" patternUnits="userSpaceOnUse">
      <path d="M 5 0 L 0 0 0 5" fill="none" stroke="#6366F1" stroke-width="0.5" opacity="0.3"/>
    </pattern>
  </defs>
  
  <!-- Intelligence grid -->
  <rect width="100" height="100" fill="url(#gridPattern)"/>
  <rect x="30" y="30" width="40" height="40" fill="none" stroke="url(#cg1)" stroke-width="3"/>
  
  <!-- Vertex cognition points -->
  <circle cx="30" cy="30" r="3" fill="#4338CA"/>
  <circle cx="70" cy="30" r="3" fill="#6366F1"/>
  <circle cx="30" cy="70" r="3" fill="#8B5CF6"/>
  <circle cx="70" cy="70" r="3" fill="#4338CA"/>
  
  <!-- Neural pathways -->
  <line x1="30" y1="30" x2="70" y2="70" stroke="#4338CA" stroke-width="2" opacity="0.7"/>
  <line x1="30" y1="70" x2="70" y2="30" stroke="#6366F1" stroke-width="2" opacity="0.7"/>
  
  <!-- Cognitive processing nodes -->
  <circle cx="50" cy="30" r="2" fill="#8B5CF6"/>
  <circle cx="30" cy="50" r="2" fill="#8B5CF6"/>
  <circle cx="50" cy="70" r="2" fill="#8B5CF6"/>
  <circle cx="70" cy="50" r="2" fill="#8B5CF6"/>
  
  <!-- Thought vectors -->
  <line x1="45" y1="50" x2="50" y2="45" stroke="#4338CA" stroke-width="1.5" opacity="0.8"/>
  <line x1="50" y1="45" x2="55" y2="50" stroke="#6366F1" stroke-width="1.5" opacity="0.8"/>
  <line x1="55" y1="50" x2="50" y2="55" stroke="#8B5CF6" stroke-width="1.5" opacity="0.8"/>
  <line x1="50" y1="55" x2="45" y2="50" stroke="#4338CA" stroke-width="1.5" opacity="0.8"/>
  
  <!-- Central intelligence -->
  <circle cx="50" cy="50" r="4" fill="url(#cg1)" opacity="0.9"/>
  <circle cx="50" cy="50" r="1.5" fill="#4338CA"/>
</svg>